<?xml version="1.0" encoding="utf-8"?>
<!-- Generator: Adobe Illustrator 24.2.1, SVG Export Plug-In . SVG Version: 6.00 Build 0)  -->
<svg version="1.1" xmlns="http://www.w3.org/2000/svg" xmlns:xlink="http://www.w3.org/1999/xlink" x="0px" y="0px"
	 viewBox="0 0 113.39 62.36" style="enable-background:new 0 0 113.39 62.36;" xml:space="preserve">
<style type="text/css">
	.st0{fill:#142337;}
	.st1{fill:none;stroke:#142337;stroke-width:0.9299;stroke-linecap:round;stroke-linejoin:round;stroke-miterlimit:10;}
	.st2{fill:#5088CC;}
	.st3{fill:#254165;}
	.st4{fill:none;stroke:#5088CC;stroke-width:0.4649;stroke-miterlimit:10;}
	.st5{fill:#FFFFFF;}
	.st6{fill:none;stroke:#FFFFFF;stroke-width:0.9299;stroke-linecap:round;stroke-linejoin:round;stroke-miterlimit:10;}
	.st7{fill:#B1E1F2;}
	.st8{fill-rule:evenodd;clip-rule:evenodd;fill:#4A7EAA;}
	.st9{fill-rule:evenodd;clip-rule:evenodd;fill:#65AFE2;}
	.st10{fill-rule:evenodd;clip-rule:evenodd;fill:#406E8A;}
	.st11{fill-rule:evenodd;clip-rule:evenodd;fill:#315166;}
	.st12{fill-rule:evenodd;clip-rule:evenodd;fill:#5A99AF;}
	.st13{fill:#74ADDC;}
	.st14{fill:#5B87B4;}
	.st15{fill:#4B6F9A;}
	.st16{fill:#2F435E;}
	.st17{fill:#1E2838;}
</style>
<g id="versao_1">
	<g>
		<path class="st0" d="M78.12,0.26H13.53v40.73h65.43V0.27c0-0.01,0-0.01-0.01-0.01C78.92,0.25,78.78,0.25,78.12,0.26"/>
		<path class="st1" d="M78.12,0.26H13.53v40.73h65.43V0.27c0-0.01,0-0.01-0.01-0.01C78.92,0.25,78.78,0.25,78.12,0.26"/>
		<rect x="16.02" y="2.45" class="st2" width="60.55" height="36.35"/>
		<path class="st3" d="M29.6,14.09c-0.24-0.34-0.04-0.48,0.27-0.53c0.3-0.05,0.3-0.27,0.3-0.5c0-0.36,0.04-0.69,0.33-0.96
			c0.28-0.26,0.54-0.45,0.94-0.27c0.12,0.05,0.27,0.02,0.33-0.14c0.11-0.3,0.37-0.31,0.59-0.23c0.35,0.13,0.42,0.02,0.46-0.32
			c0.1-0.69,0.25-1.38,0.41-2.05c0.03-0.14,0.03-0.22-0.07-0.3C33.06,8.73,33,8.63,33.05,8.53c0.07-0.17,0.01-0.24-0.15-0.31
			c-0.35-0.15-0.25-0.46-0.25-0.74c0-0.12,0.09-0.11,0.17-0.11c0.16,0,0.32,0.01,0.48,0c0.08-0.01,0.23,0.05,0.21-0.09
			c-0.01-0.09-0.04-0.21-0.21-0.24c-0.52-0.09-0.53-0.13-0.46-0.67c0.38,0.09,0.78-0.02,1.15,0.11c0.06,0.02,0.15,0.02,0.17-0.1
			c0.08-0.32,0.41-0.39,0.63-0.43c0.25-0.04,0.35,0.31,0.39,0.52c0.13,0.64,0.1,0.63,0.76,0.5c0.15-0.03,0.38-0.19,0.45,0.13
			c0.03,0.17,0.13,0.04,0.16,0.02c0.56-0.34,1.12-0.69,1.67-1.04c0.48-0.17,0.75-0.02,0.75,0.46c-0.01,0.53,0.12,1.06,0.09,1.59
			c-0.02,0.42,0.17,0.67,0.53,0.84c0.09-0.1,0.06-0.21,0.08-0.32c0.06-0.29,0.19-0.47,0.52-0.36c0.18,0.06,0.37,0.05,0.42-0.16
			c0.13-0.52,0.5-0.6,0.95-0.56c0.11,0.01,0.21-0.02,0.32,0c0.07,0.03,0.11,0.09,0.11,0.15c0,0.38,0.25,0.62,0.46,0.9
			c0.29,0.38,0.64,0.63,1.08,0.77c0.11,0.03,0.22,0.08,0.33,0.13c0.37,0.17,0.42,0.28,0.24,0.65c-0.41,0.83-0.83,1.66-1.24,2.49
			c-0.06,0.12-0.11,0.25-0.18,0.36c-0.27,0.41-0.23,0.82-0.03,1.24c-0.01,0.28-0.05,0.55-0.1,0.82c-0.08,0.41-0.16,0.49-0.58,0.48
			c-0.56-0.01-1.13-0.11-1.7-0.08c-0.18,0.01-0.37,0-0.55,0.04c-0.36,0.2-0.63,0.06-0.85-0.25c-0.05-0.06-0.09-0.13-0.15-0.19
			c-0.27-0.27-0.56-0.24-0.75,0.09c-0.17,0.29-0.33,0.54-0.72,0.54c-0.21,0-0.27,0.28-0.49,0.3c-0.28,0.04-0.55,0.17-0.85,0.08
			c-0.22-0.07-0.3,0.18-0.46,0.26c-0.23,0.08-0.42-0.05-0.6-0.15c-1.39-0.85-2.9-1.41-4.48-1.82C30.1,14.33,29.82,14.29,29.6,14.09"
			/>
		<path class="st4" d="M29.6,14.09c-0.24-0.34-0.04-0.48,0.27-0.53c0.3-0.05,0.3-0.27,0.3-0.5c0-0.36,0.04-0.69,0.33-0.96
			c0.28-0.26,0.54-0.45,0.94-0.27c0.12,0.05,0.27,0.02,0.33-0.14c0.11-0.3,0.37-0.31,0.59-0.23c0.35,0.13,0.42,0.02,0.46-0.32
			c0.1-0.69,0.25-1.38,0.41-2.05c0.03-0.14,0.03-0.22-0.07-0.3C33.06,8.73,33,8.63,33.05,8.53c0.07-0.17,0.01-0.24-0.15-0.31
			c-0.35-0.15-0.25-0.46-0.25-0.74c0-0.12,0.09-0.11,0.17-0.11c0.16,0,0.32,0.01,0.48,0c0.08-0.01,0.23,0.05,0.21-0.09
			c-0.01-0.09-0.04-0.21-0.21-0.24c-0.52-0.09-0.53-0.13-0.46-0.67c0.38,0.09,0.78-0.02,1.15,0.11c0.06,0.02,0.15,0.02,0.17-0.1
			c0.08-0.32,0.41-0.39,0.63-0.43c0.25-0.04,0.35,0.31,0.39,0.52c0.13,0.64,0.1,0.63,0.76,0.5c0.15-0.03,0.38-0.19,0.45,0.13
			c0.03,0.17,0.13,0.04,0.16,0.02c0.56-0.34,1.12-0.69,1.67-1.04c0.48-0.17,0.75-0.02,0.75,0.46c-0.01,0.53,0.12,1.06,0.09,1.59
			c-0.02,0.42,0.17,0.67,0.53,0.84c0.09-0.1,0.06-0.21,0.08-0.32c0.06-0.29,0.19-0.47,0.52-0.36c0.18,0.06,0.37,0.05,0.42-0.16
			c0.13-0.52,0.5-0.6,0.95-0.56c0.11,0.01,0.21-0.02,0.32,0c0.07,0.03,0.11,0.09,0.11,0.15c0,0.38,0.25,0.62,0.46,0.9
			c0.29,0.38,0.64,0.63,1.08,0.77c0.11,0.03,0.22,0.08,0.33,0.13c0.37,0.17,0.42,0.28,0.24,0.65c-0.41,0.83-0.83,1.66-1.24,2.49
			c-0.06,0.12-0.11,0.25-0.18,0.36c-0.27,0.41-0.23,0.82-0.03,1.24c-0.01,0.28-0.05,0.55-0.1,0.82c-0.08,0.41-0.16,0.49-0.58,0.48
			c-0.56-0.01-1.13-0.11-1.7-0.08c-0.18,0.01-0.37,0-0.55,0.04c-0.36,0.2-0.63,0.06-0.85-0.25c-0.05-0.06-0.09-0.13-0.15-0.19
			c-0.27-0.27-0.56-0.24-0.75,0.09c-0.17,0.29-0.33,0.54-0.72,0.54c-0.21,0-0.27,0.28-0.49,0.3c-0.28,0.04-0.55,0.17-0.85,0.08
			c-0.22-0.07-0.3,0.18-0.46,0.26c-0.23,0.08-0.42-0.05-0.6-0.15c-1.39-0.85-2.9-1.41-4.48-1.82C30.1,14.33,29.82,14.29,29.6,14.09z
			"/>
		<path class="st3" d="M42.55,14.16c-0.38-0.39-0.17-0.77,0.02-1.15c0.47-0.96,0.94-1.93,1.44-2.88c0.15-0.28,0.13-0.44-0.18-0.52
			c-0.74-0.18-1.28-0.63-1.73-1.22c-0.19-0.25-0.18-0.51-0.18-0.79c-0.05-0.29-0.05-0.57,0.15-0.81c0.72-0.61,1.51-0.85,2.36-0.49
			c0.1-0.01,0.09-0.02,0.08-0.06c-0.05-0.18-0.27-0.34-0.18-0.5c0.12-0.2,0.32,0.06,0.5,0.02c0.14-0.03,0.31-0.08,0.44,0.07
			c0.06,0.52,0.35,0.78,0.88,0.8c0.22,0.01,0.33,0.2,0.42,0.38c0.26,0.52,0.52,1.04,0.78,1.56c0.08,0.15,0.14,0.34,0.35,0.33
			c0.22-0.01,0.27-0.2,0.31-0.36c0.11-0.37,0.3-0.64,0.68-0.76c0.12-0.04,0.18-0.15,0.26-0.24c0.08-0.09,0.15-0.2,0.3-0.11
			c0.02,0.09,0.02,0.24,0.16,0.2c0.51-0.16,0.8,0.31,1.21,0.42c0,0.48,0.35,0.21,0.55,0.28c0.47,0.16,0.94,0.34,1.36,0.62
			c-0.3,0.86-0.65,1.71-0.97,2.57c-0.09,0.24-0.26,0.39-0.48,0.51c-0.14,0.08-0.29,0.13-0.39,0.27c-0.01,0.01-0.02,0.03-0.02,0.04
			c0.18,0.56-0.11,0.96-0.45,1.34c-0.16,0.18-0.25,0.4-0.31,0.64c-0.17,0.65-0.49,1.23-0.75,1.84c-0.04,0.1-0.1,0.19-0.2,0.24
			c-0.74,0.03-1.48-0.09-2.22-0.14c-0.85-0.06-1.69-0.15-2.54-0.2c-0.39-0.02-0.65-0.15-0.85-0.48C43.09,15.1,42.7,14.7,42.55,14.16
			"/>
		<path class="st4" d="M42.55,14.16c-0.38-0.39-0.17-0.77,0.02-1.15c0.47-0.96,0.94-1.93,1.44-2.88c0.15-0.28,0.13-0.44-0.18-0.52
			c-0.74-0.18-1.28-0.63-1.73-1.22c-0.19-0.25-0.18-0.51-0.18-0.79c-0.05-0.29-0.05-0.57,0.15-0.81c0.72-0.61,1.51-0.85,2.36-0.49
			c0.1-0.01,0.09-0.02,0.08-0.06c-0.05-0.18-0.27-0.34-0.18-0.5c0.12-0.2,0.32,0.06,0.5,0.02c0.14-0.03,0.31-0.08,0.44,0.07
			c0.06,0.52,0.35,0.78,0.88,0.8c0.22,0.01,0.33,0.2,0.42,0.38c0.26,0.52,0.52,1.04,0.78,1.56c0.08,0.15,0.14,0.34,0.35,0.33
			c0.22-0.01,0.27-0.2,0.31-0.36c0.11-0.37,0.3-0.64,0.68-0.76c0.12-0.04,0.18-0.15,0.26-0.24c0.08-0.09,0.15-0.2,0.3-0.11
			c0.02,0.09,0.02,0.24,0.16,0.2c0.51-0.16,0.8,0.31,1.21,0.42c0,0.48,0.35,0.21,0.55,0.28c0.47,0.16,0.94,0.34,1.36,0.62
			c-0.3,0.86-0.65,1.71-0.97,2.57c-0.09,0.24-0.26,0.39-0.48,0.51c-0.14,0.08-0.29,0.13-0.39,0.27c-0.01,0.01-0.02,0.03-0.02,0.04
			c0.18,0.56-0.11,0.96-0.45,1.34c-0.16,0.18-0.25,0.4-0.31,0.64c-0.17,0.65-0.49,1.23-0.75,1.84c-0.04,0.1-0.1,0.19-0.2,0.24
			c-0.74,0.03-1.48-0.09-2.22-0.14c-0.85-0.06-1.69-0.15-2.54-0.2c-0.39-0.02-0.65-0.15-0.85-0.48C43.09,15.1,42.7,14.7,42.55,14.16
			z"/>
		<path class="st3" d="M45.73,28.57c-0.19-0.2-0.4-0.33-0.69-0.16c-0.24,0.14-0.3-0.01-0.34-0.21c-0.08-0.38-0.18-0.76-0.23-1.14
			c-0.03-0.19-0.14-0.21-0.24-0.16c-0.54,0.29-1.06-0.06-1.59-0.01c0.08-0.58,0.22-1.13-0.27-1.58c-0.06-0.06-0.11-0.15,0.01-0.18
			c0.51-0.1,0.38-0.56,0.45-0.87c0.09-0.33,0.17-0.69,0.1-1.05c0.41-0.14,0.81-0.28,1.18-0.51c0.19-0.12,0.39-0.04,0.56,0.07
			c0.34,0.21,0.68,0.22,1.06,0.12c0.53-0.14,0.53-0.11,0.82,0.35c0.14,0.22,0.19,0.5,0.44,0.64c0.46,0.09,0.88,0.3,1.32,0.45
			c0.22,0.07,0.38,0.08,0.48-0.17c0.05-0.13,0.14-0.24,0.28-0.27c0.59-0.12,1.17-0.36,1.8-0.25c0.34,0.06,0.59-0.17,0.5-0.51
			c-0.1-0.39-0.01-0.7,0.17-1.03c0.17-0.31,0.22-0.65,0.22-1c0-0.41,0.08-0.46,0.48-0.38c0.13,0.03,0.26,0.07,0.39,0.05
			c0.35-0.08,0.61-0.32,0.9-0.5c0.25-0.15,0.48-0.19,0.75-0.08c0.53,0.21,1.06,0.41,1.59,0.62c0.1,0.04,0.22,0.07,0.27,0.16
			c0.26,0.4,0.65,0.39,1.06,0.39c0.44,0,0.49,0.09,0.34,0.5c-0.05,0.14-0.1,0.28-0.16,0.41c-0.13,0.28-0.18,0.55-0.02,0.84
			c0.05,0.08,0.06,0.18,0.02,0.27c-0.57,0.16-0.72,0.51-0.57,1.09c0.09,0.35-0.15,0.68-0.45,0.86c-0.18,0.11-0.26,0.25-0.32,0.42
			c-0.07,0.11-0.17,0.22-0.19,0.35c-0.07,0.6-0.54,0.73-1,0.84c-0.4,0.09-0.81,0.12-1.2,0.22c-0.3,0.11-0.57,0.28-0.87,0.39
			c-0.43,0.15-0.79-0.13-0.74-0.6c0.02-0.13,0.07-0.26,0.11-0.38c0.03-0.12,0.03-0.23-0.12-0.25c-0.3-0.03-0.36-0.26-0.44-0.49
			c-0.21-0.69-0.06-0.76-0.94-0.55c-0.33,0.08-0.61,0.15-0.95-0.12c-0.43-0.34-1.38,0.08-1.68,0.66c-0.13,0.25-0.24,0.51-0.34,0.77
			c-0.14,0.38-0.48,0.51-0.77,0.7c-0.3,0.33-0.53,0.72-0.81,1.07C46.02,28.44,45.95,28.62,45.73,28.57"/>
		<path class="st4" d="M45.73,28.57c-0.19-0.2-0.4-0.33-0.69-0.16c-0.24,0.14-0.3-0.01-0.34-0.21c-0.08-0.38-0.18-0.76-0.23-1.14
			c-0.03-0.19-0.14-0.21-0.24-0.16c-0.54,0.29-1.06-0.06-1.59-0.01c0.08-0.58,0.22-1.13-0.27-1.58c-0.06-0.06-0.11-0.15,0.01-0.18
			c0.51-0.1,0.38-0.56,0.45-0.87c0.09-0.33,0.17-0.69,0.1-1.05c0.41-0.14,0.81-0.28,1.18-0.51c0.19-0.12,0.39-0.04,0.56,0.07
			c0.34,0.21,0.68,0.22,1.06,0.12c0.53-0.14,0.53-0.11,0.82,0.35c0.14,0.22,0.19,0.5,0.44,0.64c0.46,0.09,0.88,0.3,1.32,0.45
			c0.22,0.07,0.38,0.08,0.48-0.17c0.05-0.13,0.14-0.24,0.28-0.27c0.59-0.12,1.17-0.36,1.8-0.25c0.34,0.06,0.59-0.17,0.5-0.51
			c-0.1-0.39-0.01-0.7,0.17-1.03c0.17-0.31,0.22-0.65,0.22-1c0-0.41,0.08-0.46,0.48-0.38c0.13,0.03,0.26,0.07,0.39,0.05
			c0.35-0.08,0.61-0.32,0.9-0.5c0.25-0.15,0.48-0.19,0.75-0.08c0.53,0.21,1.06,0.41,1.59,0.62c0.1,0.04,0.22,0.07,0.27,0.16
			c0.26,0.4,0.65,0.39,1.06,0.39c0.44,0,0.49,0.09,0.34,0.5c-0.05,0.14-0.1,0.28-0.16,0.41c-0.13,0.28-0.18,0.55-0.02,0.84
			c0.05,0.08,0.06,0.18,0.02,0.27c-0.57,0.16-0.72,0.51-0.57,1.09c0.09,0.35-0.15,0.68-0.45,0.86c-0.18,0.11-0.26,0.25-0.32,0.42
			c-0.07,0.11-0.17,0.22-0.19,0.35c-0.07,0.6-0.54,0.73-1,0.84c-0.4,0.09-0.81,0.12-1.2,0.22c-0.3,0.11-0.57,0.28-0.87,0.39
			c-0.43,0.15-0.79-0.13-0.74-0.6c0.02-0.13,0.07-0.26,0.11-0.38c0.03-0.12,0.03-0.23-0.12-0.25c-0.3-0.03-0.36-0.26-0.44-0.49
			c-0.21-0.69-0.06-0.76-0.94-0.55c-0.33,0.08-0.61,0.15-0.95-0.12c-0.43-0.34-1.38,0.08-1.68,0.66c-0.13,0.25-0.24,0.51-0.34,0.77
			c-0.14,0.38-0.48,0.51-0.77,0.7c-0.3,0.33-0.53,0.72-0.81,1.07C46.02,28.44,45.95,28.62,45.73,28.57z"/>
		<path class="st3" d="M46.94,23.93c-0.33-0.13-0.35-0.48-0.5-0.72c-0.15-0.24-0.26-0.35-0.55-0.25c-0.48,0.18-0.95,0.15-1.38-0.17
			c-0.15-0.11-0.29-0.07-0.44,0.03c-0.34,0.23-0.69,0.46-1.13,0.39c-0.07-0.2-0.18-0.34-0.41-0.39c-0.27-0.06-0.38-0.22-0.26-0.51
			c0.11-0.26,0.06-0.43-0.28-0.39c-0.21,0.02-0.42,0-0.63,0c-0.56,0-0.55,0-0.65-0.57c-0.1-0.58-0.22-1.16-0.33-1.75
			c0.01-0.33,0.28-0.5,0.46-0.72c0.17-0.21,0.32-0.39,0.05-0.64c-0.13-0.12-0.11-0.29-0.08-0.45c0.04-0.23-0.07-0.32-0.28-0.32
			c-0.13,0-0.27-0.02-0.4,0.01c-0.32,0.06-0.49-0.06-0.51-0.38c-0.03-0.55-0.17-1.1-0.03-1.65c0.6-0.18,1.2-0.07,1.8-0.06
			c0.05,0,0.1,0.03,0.15,0.04c0.74,0.12,0.86,0.02,0.92-0.73c0.02-0.18,0.05-0.37,0.08-0.55c0.34,0.5,0.69,0.99,1.02,1.5
			c0.12,0.19,0.26,0.25,0.48,0.27c1.25,0.08,2.49,0.16,3.74,0.31c0.4,0.05,0.81,0.05,1.22,0.08c0.22,0.07,0.11,0.23,0.07,0.32
			c-0.36,0.68-0.28,1.42-0.35,2.14c0.04,0.61-0.1,1.22-0.09,1.83c0.01,0.22-0.11,0.38-0.27,0.5c-0.27,0.21-0.56,0.4-0.83,0.61
			c-0.5,0.39-0.93,0.87-0.62,1.67C46.97,23.56,47.06,23.75,46.94,23.93"/>
		<path class="st4" d="M46.94,23.93c-0.33-0.13-0.35-0.48-0.5-0.72c-0.15-0.24-0.26-0.35-0.55-0.25c-0.48,0.18-0.95,0.15-1.38-0.17
			c-0.15-0.11-0.29-0.07-0.44,0.03c-0.34,0.23-0.69,0.46-1.13,0.39c-0.07-0.2-0.18-0.34-0.41-0.39c-0.27-0.06-0.38-0.22-0.26-0.51
			c0.11-0.26,0.06-0.43-0.28-0.39c-0.21,0.02-0.42,0-0.63,0c-0.56,0-0.55,0-0.65-0.57c-0.1-0.58-0.22-1.16-0.33-1.75
			c0.01-0.33,0.28-0.5,0.46-0.72c0.17-0.21,0.32-0.39,0.05-0.64c-0.13-0.12-0.11-0.29-0.08-0.45c0.04-0.23-0.07-0.32-0.28-0.32
			c-0.13,0-0.27-0.02-0.4,0.01c-0.32,0.06-0.49-0.06-0.51-0.38c-0.03-0.55-0.17-1.1-0.03-1.65c0.6-0.18,1.2-0.07,1.8-0.06
			c0.05,0,0.1,0.03,0.15,0.04c0.74,0.12,0.86,0.02,0.92-0.73c0.02-0.18,0.05-0.37,0.08-0.55c0.34,0.5,0.69,0.99,1.02,1.5
			c0.12,0.19,0.26,0.25,0.48,0.27c1.25,0.08,2.49,0.16,3.74,0.31c0.4,0.05,0.81,0.05,1.22,0.08c0.22,0.07,0.11,0.23,0.07,0.32
			c-0.36,0.68-0.28,1.42-0.35,2.14c0.04,0.61-0.1,1.22-0.09,1.83c0.01,0.22-0.11,0.38-0.27,0.5c-0.27,0.21-0.56,0.4-0.83,0.61
			c-0.5,0.39-0.93,0.87-0.62,1.67C46.97,23.56,47.06,23.75,46.94,23.93z"/>
		<path class="st3" d="M57.4,23.36c-0.39-0.55-0.15-1.05,0.1-1.56c0.12-0.25,0.11-0.39-0.22-0.36c-0.2,0.02-0.4,0-0.6,0
			c-0.09,0-0.21,0.01-0.26-0.07c-0.35-0.6-1.04-0.57-1.55-0.88c-0.66-0.39-1.24-0.28-1.79,0.2c-0.11,0.1-0.23,0.17-0.39,0.19
			c-0.14-0.06-0.18-0.19-0.2-0.32c-0.1-0.52-0.23-1.04-0.3-1.57c0.01-0.29-0.03-0.59-0.1-0.86c-0.18-0.7,0.17-1.15,0.62-1.58
			c0.04-0.02,0.08-0.03,0.12-0.04c0.21,0.01,0.35,0.12,0.42,0.31c0.09,0.24,0.23,0.22,0.44,0.15c0.38-0.14,0.72-0.25,0.65-0.79
			c-0.03-0.25,0.27-0.44,0.46-0.39c0.71,0.19,1.19-0.19,1.69-0.56c0.22-0.03,0.3,0.15,0.38,0.3c0.13,0.25,0.25,0.23,0.46,0.07
			c0.76-0.57,1.14-0.51,1.79,0.25c0.08,0.23,0.14,0.48,0.23,0.71c0.07,0.19,0.1,0.36-0.06,0.55c-0.18,0.23-0.03,0.44,0.15,0.61
			c0.08,0.08,0.22,0.09,0.27,0.21c-0.12,0.57-0.42,0.98-0.98,1.2c-0.25,0.1-0.27,0.24-0.27,0.53c0,0.71,0.25,1.41,0.05,2.12
			c-0.03,0.11-0.02,0.24-0.01,0.36c0.07,0.57-0.12,1.05-0.49,1.47C57.73,23.74,57.55,23.6,57.4,23.36"/>
		<path class="st4" d="M57.4,23.36c-0.39-0.55-0.15-1.05,0.1-1.56c0.12-0.25,0.11-0.39-0.22-0.36c-0.2,0.02-0.4,0-0.6,0
			c-0.09,0-0.21,0.01-0.26-0.07c-0.35-0.6-1.04-0.57-1.55-0.88c-0.66-0.39-1.24-0.28-1.79,0.2c-0.11,0.1-0.23,0.17-0.39,0.19
			c-0.14-0.06-0.18-0.19-0.2-0.32c-0.1-0.52-0.23-1.04-0.3-1.57c0.01-0.29-0.03-0.59-0.1-0.86c-0.18-0.7,0.17-1.15,0.62-1.58
			c0.04-0.02,0.08-0.03,0.12-0.04c0.21,0.01,0.35,0.12,0.42,0.31c0.09,0.24,0.23,0.22,0.44,0.15c0.38-0.14,0.72-0.25,0.65-0.79
			c-0.03-0.25,0.27-0.44,0.46-0.39c0.71,0.19,1.19-0.19,1.69-0.56c0.22-0.03,0.3,0.15,0.38,0.3c0.13,0.25,0.25,0.23,0.46,0.07
			c0.76-0.57,1.14-0.51,1.79,0.25c0.08,0.23,0.14,0.48,0.23,0.71c0.07,0.19,0.1,0.36-0.06,0.55c-0.18,0.23-0.03,0.44,0.15,0.61
			c0.08,0.08,0.22,0.09,0.27,0.21c-0.12,0.57-0.42,0.98-0.98,1.2c-0.25,0.1-0.27,0.24-0.27,0.53c0,0.71,0.25,1.41,0.05,2.12
			c-0.03,0.11-0.02,0.24-0.01,0.36c0.07,0.57-0.12,1.05-0.49,1.47C57.73,23.74,57.55,23.6,57.4,23.36z"/>
		<path class="st3" d="M52.84,16.56c-0.02,0.01-0.05,0.01-0.07,0.02c-0.24,0.14-0.43,0.07-0.59-0.14c-0.09-0.12-0.16-0.24-0.26-0.36
			c-0.19-0.23-0.18-0.45-0.02-0.69c0.09-0.13,0.22-0.25,0.2-0.42c-0.02-0.22-0.26-0.07-0.35-0.17c-0.28-0.32-0.5-0.66-0.44-1.11
			c0.03-0.22,0.06-0.45,0.07-0.67c0.01-0.25-0.09-0.39-0.33-0.47c-0.17-0.06-0.41-0.03-0.46-0.29c0.01-0.01,0.01-0.03,0.02-0.03
			c0.96-0.35,1.01-1.29,1.36-2.05c0.18-0.4,0.21-0.88,0.55-1.21c0.31,0.08,0.6,0.42,0.93,0.02c0.04-0.05,0.08,0.06,0.12,0.11
			c0.17,0.27,0.38,0.53,0.53,0.81c0.11,0.21,0.2,0.25,0.33,0.06c0.13-0.18,0.27-0.18,0.46-0.12c0.4,0.13,0.83,0.15,1.22,0.31
			c0.09,0.34-0.03,0.61-0.29,0.8c-0.37,0.26-0.53,0.58-0.38,1.02c0.05,0.15,0.07,0.33-0.03,0.46c-0.21,0.29-0.17,0.59-0.08,0.91
			c0.09,0.31,0.01,0.45-0.32,0.42c-0.64-0.05-1.1,0.33-1.61,0.6c-0.34,0.18-0.62,1-0.53,1.38C52.94,16.03,53.03,16.3,52.84,16.56"/>
		<path class="st4" d="M52.84,16.56c-0.02,0.01-0.05,0.01-0.07,0.02c-0.24,0.14-0.43,0.07-0.59-0.14c-0.09-0.12-0.16-0.24-0.26-0.36
			c-0.19-0.23-0.18-0.45-0.02-0.69c0.09-0.13,0.22-0.25,0.2-0.42c-0.02-0.22-0.26-0.07-0.35-0.17c-0.28-0.32-0.5-0.66-0.44-1.11
			c0.03-0.22,0.06-0.45,0.07-0.67c0.01-0.25-0.09-0.39-0.33-0.47c-0.17-0.06-0.41-0.03-0.46-0.29c0.01-0.01,0.01-0.03,0.02-0.03
			c0.96-0.35,1.01-1.29,1.36-2.05c0.18-0.4,0.21-0.88,0.55-1.21c0.31,0.08,0.6,0.42,0.93,0.02c0.04-0.05,0.08,0.06,0.12,0.11
			c0.17,0.27,0.38,0.53,0.53,0.81c0.11,0.21,0.2,0.25,0.33,0.06c0.13-0.18,0.27-0.18,0.46-0.12c0.4,0.13,0.83,0.15,1.22,0.31
			c0.09,0.34-0.03,0.61-0.29,0.8c-0.37,0.26-0.53,0.58-0.38,1.02c0.05,0.15,0.07,0.33-0.03,0.46c-0.21,0.29-0.17,0.59-0.08,0.91
			c0.09,0.31,0.01,0.45-0.32,0.42c-0.64-0.05-1.1,0.33-1.61,0.6c-0.34,0.18-0.62,1-0.53,1.38C52.94,16.03,53.03,16.3,52.84,16.56z"
			/>
		<path class="st3" d="M49.58,33.06c-0.03,0.04-0.06,0.09-0.08,0.13c-0.31,0.79-0.73,1.47-1.51,1.88c-0.34,0.18-0.55,0.5-0.64,0.84
			c-0.15,0.56-0.57,0.75-1.03,0.95c-0.01-0.15,0.01-0.31-0.05-0.43c-0.08-0.14-0.02-0.23,0.07-0.25c0.36-0.11,0.21-0.3,0.09-0.48
			c-0.43-0.62-1.17-0.81-1.73-1.26c-0.05-0.04-0.07,0-0.09,0.02c-0.33,0.43-0.46,0-0.59-0.17c-0.42-0.53-0.43-0.55-1.04-0.39
			c0.72-1.33,1.83-2.22,3.16-2.87c0.79-0.06,1.55-0.06,2.15,0.6c0.27,0.29,0.59,0.49,1,0.51c0.24,0.02,0.38,0.14,0.31,0.39
			C49.53,32.72,49.6,32.89,49.58,33.06"/>
		<path class="st4" d="M49.58,33.06c-0.03,0.04-0.06,0.09-0.08,0.13c-0.31,0.79-0.73,1.47-1.51,1.88c-0.34,0.18-0.55,0.5-0.64,0.84
			c-0.15,0.56-0.57,0.75-1.03,0.95c-0.01-0.15,0.01-0.31-0.05-0.43c-0.08-0.14-0.02-0.23,0.07-0.25c0.36-0.11,0.21-0.3,0.09-0.48
			c-0.43-0.62-1.17-0.81-1.73-1.26c-0.05-0.04-0.07,0-0.09,0.02c-0.33,0.43-0.46,0-0.59-0.17c-0.42-0.53-0.43-0.55-1.04-0.39
			c0.72-1.33,1.83-2.22,3.16-2.87c0.79-0.06,1.55-0.06,2.15,0.6c0.27,0.29,0.59,0.49,1,0.51c0.24,0.02,0.38,0.14,0.31,0.39
			C49.53,32.72,49.6,32.89,49.58,33.06z"/>
		<path class="st3" d="M46.86,27.2c0.62-0.26,0.84-0.82,1.05-1.39c0.21-0.59,1.2-1.22,1.87-0.8c0.57,0.36,0.97,0.02,1.45,0
			c0.23-0.01,0.31,0.01,0.35,0.23c0.03,0.19,0.11,0.38,0.16,0.57c0.05,0.22,0.11,0.4,0.41,0.36c0.27-0.03,0.22,0.13,0.16,0.31
			c-0.09,0.29-0.29,0.58,0,0.89c0.12,0.13,0.19,0.18,0.36,0.09c0.32-0.15,0.66-0.28,0.98-0.42c0.26,0.13,0.28,0.32,0.16,0.56
			c-0.35,0.45-0.74,0.83-1.31,0.99c-0.58,0.17-0.98,0.62-1.39,1.03c-0.46-0.08-0.73-0.51-1.18-0.62c-0.15-0.04-0.17-0.25-0.21-0.41
			c-0.03-0.12-0.05-0.23-0.08-0.35c-0.13-0.52-0.1-0.5-0.67-0.64c-0.66-0.17-1.3-0.3-1.97-0.32C46.94,27.29,46.9,27.25,46.86,27.2"
			/>
		<path class="st4" d="M46.86,27.2c0.62-0.26,0.84-0.82,1.05-1.39c0.21-0.59,1.2-1.22,1.87-0.8c0.57,0.36,0.97,0.02,1.45,0
			c0.23-0.01,0.31,0.01,0.35,0.23c0.03,0.19,0.11,0.38,0.16,0.57c0.05,0.22,0.11,0.4,0.41,0.36c0.27-0.03,0.22,0.13,0.16,0.31
			c-0.09,0.29-0.29,0.58,0,0.89c0.12,0.13,0.19,0.18,0.36,0.09c0.32-0.15,0.66-0.28,0.98-0.42c0.26,0.13,0.28,0.32,0.16,0.56
			c-0.35,0.45-0.74,0.83-1.31,0.99c-0.58,0.17-0.98,0.62-1.39,1.03c-0.46-0.08-0.73-0.51-1.18-0.62c-0.15-0.04-0.17-0.25-0.21-0.41
			c-0.03-0.12-0.05-0.23-0.08-0.35c-0.13-0.52-0.1-0.5-0.67-0.64c-0.66-0.17-1.3-0.3-1.97-0.32C46.94,27.29,46.9,27.25,46.86,27.2z"
			/>
		<path class="st3" d="M52.84,16.56c0.01-0.32,0.01-0.63-0.11-0.94c-0.1-0.28,0.36-1.23,0.65-1.36c0.55-0.25,1.04-0.7,1.73-0.58
			c0.18,0.03,0.23-0.08,0.16-0.25c-0.14-0.36-0.24-0.71,0.09-1.05c0.14-0.15,0.02-0.37-0.05-0.53c-0.16-0.39,0.05-0.72,0.31-0.86
			c0.37-0.2,0.4-0.52,0.5-0.83c0.15,0.09,0.25,0.3,0.47,0.26c0.08,0.37,0.03,0.74,0.02,1.11c0,0.22,0.02,0.42,0.19,0.58
			c0.19,0.18,0.25,0.41,0.19,0.66c-0.06,0.26-0.03,0.5,0.12,0.72c0.13,0.19,0.16,0.39,0.07,0.61c-0.04,0.11-0.07,0.23-0.07,0.35
			c0.01,0.5-0.12,0.68-0.59,0.84c-0.17,0.13-0.36,0.23-0.49,0.39c-0.29,0.35-0.66,0.28-1.02,0.22c-0.4-0.07-0.55,0.09-0.53,0.48
			c0.01,0.26-0.15,0.49-0.42,0.6c-0.08,0.03-0.19,0.01-0.27,0.06c-0.31,0.18-0.57,0.29-0.65-0.23
			C53.12,16.65,52.95,16.64,52.84,16.56"/>
		<path class="st4" d="M52.84,16.56c0.01-0.32,0.01-0.63-0.11-0.94c-0.1-0.28,0.36-1.23,0.65-1.36c0.55-0.25,1.04-0.7,1.73-0.58
			c0.18,0.03,0.23-0.08,0.16-0.25c-0.14-0.36-0.24-0.71,0.09-1.05c0.14-0.15,0.02-0.37-0.05-0.53c-0.16-0.39,0.05-0.72,0.31-0.86
			c0.37-0.2,0.4-0.52,0.5-0.83c0.15,0.09,0.25,0.3,0.47,0.26c0.08,0.37,0.03,0.74,0.02,1.11c0,0.22,0.02,0.42,0.19,0.58
			c0.19,0.18,0.25,0.41,0.19,0.66c-0.06,0.26-0.03,0.5,0.12,0.72c0.13,0.19,0.16,0.39,0.07,0.61c-0.04,0.11-0.07,0.23-0.07,0.35
			c0.01,0.5-0.12,0.68-0.59,0.84c-0.17,0.13-0.36,0.23-0.49,0.39c-0.29,0.35-0.66,0.28-1.02,0.22c-0.4-0.07-0.55,0.09-0.53,0.48
			c0.01,0.26-0.15,0.49-0.42,0.6c-0.08,0.03-0.19,0.01-0.27,0.06c-0.31,0.18-0.57,0.29-0.65-0.23
			C53.12,16.65,52.95,16.64,52.84,16.56z"/>
		<path class="st3" d="M39.59,15.46c0.11,0.57,0.03,1.16,0.15,1.74c0.03,0.17,0.02,0.29,0.25,0.19c0.1-0.04,0.24-0.02,0.36-0.02
			c0.59,0,0.59,0,0.52,0.57c-0.02,0.15,0.03,0.29,0.16,0.34c0.33,0.13,0.19,0.32,0.06,0.48c-0.23,0.29-0.47,0.57-0.71,0.85
			c-0.48-0.19-0.99-0.34-1.44-0.58c-0.52-0.28-1.07-0.39-1.62-0.54c-0.46-0.13-0.65-0.53-0.87-0.87c-0.06-0.1-0.05-0.47-0.03-0.7
			c0.02-0.2,0.13-0.4-0.03-0.55c-0.19-0.17-0.34,0.1-0.53,0.13c-0.04,0-0.07,0.03-0.1,0.05c-0.11-0.06-0.24-0.11-0.32-0.23
			c0.09-0.28,0.24-0.38,0.56-0.33c0.37,0.07,0.76,0.07,1-0.34c0.02-0.03,0.1-0.05,0.14-0.05c0.44,0.08,0.6-0.22,0.76-0.53
			c0.17-0.34,0.57-0.4,0.84-0.12c0.12,0.12,0.22,0.26,0.32,0.4C39.21,15.57,39.37,15.61,39.59,15.46"/>
		<path class="st4" d="M39.59,15.46c0.11,0.57,0.03,1.16,0.15,1.74c0.03,0.17,0.02,0.29,0.25,0.19c0.1-0.04,0.24-0.02,0.36-0.02
			c0.59,0,0.59,0,0.52,0.57c-0.02,0.15,0.03,0.29,0.16,0.34c0.33,0.13,0.19,0.32,0.06,0.48c-0.23,0.29-0.47,0.57-0.71,0.85
			c-0.48-0.19-0.99-0.34-1.44-0.58c-0.52-0.28-1.07-0.39-1.62-0.54c-0.46-0.13-0.65-0.53-0.87-0.87c-0.06-0.1-0.05-0.47-0.03-0.7
			c0.02-0.2,0.13-0.4-0.03-0.55c-0.19-0.17-0.34,0.1-0.53,0.13c-0.04,0-0.07,0.03-0.1,0.05c-0.11-0.06-0.24-0.11-0.32-0.23
			c0.09-0.28,0.24-0.38,0.56-0.33c0.37,0.07,0.76,0.07,1-0.34c0.02-0.03,0.1-0.05,0.14-0.05c0.44,0.08,0.6-0.22,0.76-0.53
			c0.17-0.34,0.57-0.4,0.84-0.12c0.12,0.12,0.22,0.26,0.32,0.4C39.21,15.57,39.37,15.61,39.59,15.46z"/>
		<path class="st3" d="M42.06,6.8c-0.07,0.26-0.02,0.55-0.15,0.8c-0.17,0.1-0.36,0.1-0.54,0.07c-0.35-0.06-0.56,0.09-0.62,0.42
			c-0.07,0.37-0.27,0.46-0.59,0.29c-0.25-0.13-0.34,0-0.38,0.21C39.75,8.8,39.75,9,39.73,9.24c-0.43-0.29-0.87-0.51-0.79-1.17
			c0.07-0.55-0.08-1.1-0.08-1.66c0-0.41-0.39-0.28-0.64-0.33c0.04-0.15-0.08-0.25-0.17-0.28c-0.73-0.24-0.88-0.93-1.22-1.57
			c0.52,0.06,0.99,0.08,1.43,0.18c0.65,0.14,0.64,0.16,1.4-0.21c0.32-0.15,0.62-0.28,0.65-0.72c0.02-0.26,0.28-0.08,0.43-0.12
			c0.15-0.04,0.22,0.05,0.2,0.2c-0.04,0.27,0.04,0.48,0.26,0.66c0.18,0.14,0.14,0.38,0.04,0.52c-0.38,0.53-0.12,1.05-0.05,1.58
			c0.02,0.17,0.21,0.23,0.35,0.29C41.71,6.7,41.89,6.75,42.06,6.8"/>
		<path class="st4" d="M42.06,6.8c-0.07,0.26-0.02,0.55-0.15,0.8c-0.17,0.1-0.36,0.1-0.54,0.07c-0.35-0.06-0.56,0.09-0.62,0.42
			c-0.07,0.37-0.27,0.46-0.59,0.29c-0.25-0.13-0.34,0-0.38,0.21C39.75,8.8,39.75,9,39.73,9.24c-0.43-0.29-0.87-0.51-0.79-1.17
			c0.07-0.55-0.08-1.1-0.08-1.66c0-0.41-0.39-0.28-0.64-0.33c0.04-0.15-0.08-0.25-0.17-0.28c-0.73-0.24-0.88-0.93-1.22-1.57
			c0.52,0.06,0.99,0.08,1.43,0.18c0.65,0.14,0.64,0.16,1.4-0.21c0.32-0.15,0.62-0.28,0.65-0.72c0.02-0.26,0.28-0.08,0.43-0.12
			c0.15-0.04,0.22,0.05,0.2,0.2c-0.04,0.27,0.04,0.48,0.26,0.66c0.18,0.14,0.14,0.38,0.04,0.52c-0.38,0.53-0.12,1.05-0.05,1.58
			c0.02,0.17,0.21,0.23,0.35,0.29C41.71,6.7,41.89,6.75,42.06,6.8z"/>
		<path class="st3" d="M46.86,27.2c0.37,0,0.74,0.01,1.11,0c0.15,0,0.3,0,0.42,0.09c0.28,0.22,0.6,0.26,0.93,0.23
			c0.2-0.02,0.31,0.06,0.33,0.29c0.03,0.29,0.11,0.57,0.17,0.85c0.04,0.23,0.19,0.32,0.4,0.35c0.38,0.06,0.58,0.4,0.88,0.6
			c-0.2,0.23-0.4,0.45-0.65,0.64c-0.26,0.03-0.53,0.02-0.77,0.17c-0.13,0.09-0.29,0.04-0.42-0.02c-0.35-0.17-0.67-0.09-0.97,0.13
			c-0.26,0.2-0.54,0.24-0.86,0.16c-0.4-0.09-0.81-0.12-1.21-0.21c-0.09-0.34-0.11-0.73-0.63-0.64c-0.22,0.04-0.2-0.13-0.17-0.25
			c0.09-0.34,0.2-0.68,0.3-1.02c0.37-0.25,0.54-0.66,0.82-0.98C46.65,27.46,46.7,27.28,46.86,27.2"/>
		<path class="st4" d="M46.86,27.2c0.37,0,0.74,0.01,1.11,0c0.15,0,0.3,0,0.42,0.09c0.28,0.22,0.6,0.26,0.93,0.23
			c0.2-0.02,0.31,0.06,0.33,0.29c0.03,0.29,0.11,0.57,0.17,0.85c0.04,0.23,0.19,0.32,0.4,0.35c0.38,0.06,0.58,0.4,0.88,0.6
			c-0.2,0.23-0.4,0.45-0.65,0.64c-0.26,0.03-0.53,0.02-0.77,0.17c-0.13,0.09-0.29,0.04-0.42-0.02c-0.35-0.17-0.67-0.09-0.97,0.13
			c-0.26,0.2-0.54,0.24-0.86,0.16c-0.4-0.09-0.81-0.12-1.21-0.21c-0.09-0.34-0.11-0.73-0.63-0.64c-0.22,0.04-0.2-0.13-0.17-0.25
			c0.09-0.34,0.2-0.68,0.3-1.02c0.37-0.25,0.54-0.66,0.82-0.98C46.65,27.46,46.7,27.28,46.86,27.2z"/>
		<path class="st3" d="M35.44,16.33c0.14,0.03,0.29,0.04,0.31,0.23c-0.48,0.18-0.86,0.64-1.45,0.53c-0.02,0-0.04,0.02-0.06,0.04
			c-0.53,0.69-1.27,0.17-1.89,0.32c-0.13,0.03-0.1-0.12-0.11-0.21c0-0.25-0.01-0.51,0-0.76c0.02-0.31-0.08-0.38-0.37-0.24
			c-0.12,0.06-0.3,0.03-0.41,0.1c-0.52,0.31-0.91-0.02-1.33-0.23c-0.07-0.04-0.18-0.08-0.12-0.16c0.34-0.49-0.21-0.72-0.32-1.08
			c-0.04-0.13-0.16-0.23-0.24-0.35c-0.14-0.21-0.04-0.33,0.15-0.43c1.76,0.46,3.51,0.96,5.08,1.92
			C34.92,16.15,35.14,16.33,35.44,16.33"/>
		<path class="st4" d="M35.44,16.33c0.14,0.03,0.29,0.04,0.31,0.23c-0.48,0.18-0.86,0.64-1.45,0.53c-0.02,0-0.04,0.02-0.06,0.04
			c-0.53,0.69-1.27,0.17-1.89,0.32c-0.13,0.03-0.1-0.12-0.11-0.21c0-0.25-0.01-0.51,0-0.76c0.02-0.31-0.08-0.38-0.37-0.24
			c-0.12,0.06-0.3,0.03-0.41,0.1c-0.52,0.31-0.91-0.02-1.33-0.23c-0.07-0.04-0.18-0.08-0.12-0.16c0.34-0.49-0.21-0.72-0.32-1.08
			c-0.04-0.13-0.16-0.23-0.24-0.35c-0.14-0.21-0.04-0.33,0.15-0.43c1.76,0.46,3.51,0.96,5.08,1.92
			C34.92,16.15,35.14,16.33,35.44,16.33z"/>
		<path class="st3" d="M57.08,14.09c0.12-0.18,0.1-0.36-0.03-0.52c-0.21-0.26-0.27-0.52-0.15-0.85c0.05-0.13,0.07-0.31-0.05-0.41
			c-0.64-0.56-0.27-1.25-0.25-1.89c0.32-0.18,0.69-0.08,1.04-0.15c0.27-0.05,0.46,0.29,0.69,0.47c0.58,0.46,1.15,0.95,1.72,1.42
			c-0.1,0.41-0.49,0.54-0.75,0.79c-0.17,0.17-0.36,0.3-0.34,0.58c-0.02,0.3,0.08,0.62-0.13,0.88c-0.25,0.19-0.49,0.23-0.73-0.02
			c-0.15-0.15-0.36-0.13-0.55-0.18C57.37,14.18,57.2,14.21,57.08,14.09"/>
		<path class="st4" d="M57.08,14.09c0.12-0.18,0.1-0.36-0.03-0.52c-0.21-0.26-0.27-0.52-0.15-0.85c0.05-0.13,0.07-0.31-0.05-0.41
			c-0.64-0.56-0.27-1.25-0.25-1.89c0.32-0.18,0.69-0.08,1.04-0.15c0.27-0.05,0.46,0.29,0.69,0.47c0.58,0.46,1.15,0.95,1.72,1.42
			c-0.1,0.41-0.49,0.54-0.75,0.79c-0.17,0.17-0.36,0.3-0.34,0.58c-0.02,0.3,0.08,0.62-0.13,0.88c-0.25,0.19-0.49,0.23-0.73-0.02
			c-0.15-0.15-0.36-0.13-0.55-0.18C57.37,14.18,57.2,14.21,57.08,14.09z"/>
		<path class="st3" d="M49.24,7.45c-0.36,0.46-1.11,0.54-1.19,1.27c-0.02,0.16-0.07,0.34-0.34,0.34c-0.27,0-0.33-0.17-0.42-0.34
			c-0.26-0.52-0.53-1.04-0.77-1.57c-0.13-0.28-0.29-0.41-0.6-0.47c-0.67-0.12-0.67-0.15-0.65-0.84c0.53,0.02,1.08-0.09,1.57,0.23
			c0.09,0.06,0.26,0.07,0.26-0.16c0.01-0.41,0.16-0.76,0.5-1.01c0.32-0.23,0.45-0.54,0.39-0.94c0.24,0.3,0.26,0.68,0.36,1.01
			c0.1,0.33,0.26,0.64,0.34,0.98c0.01,0.04-0.01,0.15,0.06,0.09c0.38-0.28,0.34,0.21,0.52,0.29c0.27,0.12,0.19,0.36,0.09,0.59
			C49.29,7.08,49.28,7.27,49.24,7.45"/>
		<path class="st4" d="M49.24,7.45c-0.36,0.46-1.11,0.54-1.19,1.27c-0.02,0.16-0.07,0.34-0.34,0.34c-0.27,0-0.33-0.17-0.42-0.34
			c-0.26-0.52-0.53-1.04-0.77-1.57c-0.13-0.28-0.29-0.41-0.6-0.47c-0.67-0.12-0.67-0.15-0.65-0.84c0.53,0.02,1.08-0.09,1.57,0.23
			c0.09,0.06,0.26,0.07,0.26-0.16c0.01-0.41,0.16-0.76,0.5-1.01c0.32-0.23,0.45-0.54,0.39-0.94c0.24,0.3,0.26,0.68,0.36,1.01
			c0.1,0.33,0.26,0.64,0.34,0.98c0.01,0.04-0.01,0.15,0.06,0.09c0.38-0.28,0.34,0.21,0.52,0.29c0.27,0.12,0.19,0.36,0.09,0.59
			C49.29,7.08,49.28,7.27,49.24,7.45z"/>
		<path class="st3" d="M46.23,30.49c0.3-0.16,0.6,0,0.88,0.06c0.46,0.09,0.9,0.17,1.29-0.19c0.07-0.06,0.15-0.12,0.23-0.15
			c0.35-0.12,0.66,0.25,0.94,0.15c0.3-0.1,0.55-0.3,0.87-0.1c0.07,0.58,0.14,1.16,0.01,1.76c-0.08,0.37-0.22,0.65-0.56,0.83
			c-0.11,0.06-0.21,0.14-0.32,0.22c-0.15-0.12-0.2-0.26-0.11-0.45c0.11-0.24,0.06-0.38-0.24-0.36c-0.39,0.02-0.7-0.17-0.94-0.45
			c-0.43-0.51-0.98-0.68-1.62-0.66c-0.19,0-0.37-0.05-0.55-0.09C46.16,30.86,46.2,30.67,46.23,30.49"/>
		<path class="st4" d="M46.23,30.49c0.3-0.16,0.6,0,0.88,0.06c0.46,0.09,0.9,0.17,1.29-0.19c0.07-0.06,0.15-0.12,0.23-0.15
			c0.35-0.12,0.66,0.25,0.94,0.15c0.3-0.1,0.55-0.3,0.87-0.1c0.07,0.58,0.14,1.16,0.01,1.76c-0.08,0.37-0.22,0.65-0.56,0.83
			c-0.11,0.06-0.21,0.14-0.32,0.22c-0.15-0.12-0.2-0.26-0.11-0.45c0.11-0.24,0.06-0.38-0.24-0.36c-0.39,0.02-0.7-0.17-0.94-0.45
			c-0.43-0.51-0.98-0.68-1.62-0.66c-0.19,0-0.37-0.05-0.55-0.09C46.16,30.86,46.2,30.67,46.23,30.49z"/>
		<path class="st3" d="M57.08,14.09c0.3-0.04,0.59,0.08,0.89,0.09c0.05,0,0.12,0.03,0.13,0.06c0.14,0.37,0.4,0.24,0.65,0.17
			c0.32-0.01,0.62-0.05,0.88-0.28c0.13-0.12,0.31-0.14,0.48-0.01c0.17,0.13,0.14,0.3,0.07,0.47c-0.02,0.05-0.05,0.1-0.03,0.21
			c0.33-0.2,0.64-0.41,0.99-0.55c0.29-0.12,0.58-0.19,0.82,0.1c-0.04,0.42,0.04,0.87-0.32,1.21c-0.35-0.01-0.67,0.06-0.95,0.29
			c-0.22,0.18-0.53,0.19-0.74,0.03c-0.3-0.22-0.54-0.2-0.81-0.01c-0.02,0-0.04,0-0.06,0c-0.05-0.04-0.1-0.08-0.16-0.12
			c-0.83-0.57-0.83-0.58-1.64,0.03c-0.19,0.15-0.29,0.13-0.42-0.08c-0.09-0.14-0.1-0.37-0.33-0.41c0.29-0.25,0.67-0.44,0.48-0.94
			C56.98,14.28,57.05,14.17,57.08,14.09"/>
		<path class="st4" d="M57.08,14.09c0.3-0.04,0.59,0.08,0.89,0.09c0.05,0,0.12,0.03,0.13,0.06c0.14,0.37,0.4,0.24,0.65,0.17
			c0.32-0.01,0.62-0.05,0.88-0.28c0.13-0.12,0.31-0.14,0.48-0.01c0.17,0.13,0.14,0.3,0.07,0.47c-0.02,0.05-0.05,0.1-0.03,0.21
			c0.33-0.2,0.64-0.41,0.99-0.55c0.29-0.12,0.58-0.19,0.82,0.1c-0.04,0.42,0.04,0.87-0.32,1.21c-0.35-0.01-0.67,0.06-0.95,0.29
			c-0.22,0.18-0.53,0.19-0.74,0.03c-0.3-0.22-0.54-0.2-0.81-0.01c-0.02,0-0.04,0-0.06,0c-0.05-0.04-0.1-0.08-0.16-0.12
			c-0.83-0.57-0.83-0.58-1.64,0.03c-0.19,0.15-0.29,0.13-0.42-0.08c-0.09-0.14-0.1-0.37-0.33-0.41c0.29-0.25,0.67-0.44,0.48-0.94
			C56.98,14.28,57.05,14.17,57.08,14.09z"/>
		<path class="st3" d="M53.81,27.6c0.01-0.2-0.04-0.39-0.16-0.56c0.34-0.15,0.71-0.16,1.07-0.21c0.3-0.04,0.54-0.19,0.82-0.27
			c0.14-0.04,0.17-0.14,0.18-0.27c0.03-0.24,0.07-0.48,0.32-0.6c0.29,0.12,0.55,0.33,0.87,0.4c0.01,0.4-0.01,0.77-0.51,0.88
			c-0.26,0.05-0.3,0.31-0.4,0.49c-0.07,0.13-0.13,0.28-0.31,0.23C55.07,27.52,54.43,27.67,53.81,27.6"/>
		<path class="st4" d="M53.81,27.6c0.01-0.2-0.04-0.39-0.16-0.56c0.34-0.15,0.71-0.16,1.07-0.21c0.3-0.04,0.54-0.19,0.82-0.27
			c0.14-0.04,0.17-0.14,0.18-0.27c0.03-0.24,0.07-0.48,0.32-0.6c0.29,0.12,0.55,0.33,0.87,0.4c0.01,0.4-0.01,0.77-0.51,0.88
			c-0.26,0.05-0.3,0.31-0.4,0.49c-0.07,0.13-0.13,0.28-0.31,0.23C55.07,27.52,54.43,27.67,53.81,27.6z"/>
		<path class="st3" d="M56.9,26.09c-0.39,0.08-0.65-0.1-0.87-0.4c0.03-0.2-0.06-0.41,0.31-0.46c0.23-0.03,0.41-0.41,0.42-0.73
			c0-0.09,0-0.19-0.02-0.28c-0.14-0.65-0.28-0.65,0.65-0.86c0.2,0.1,0.38,0.25,0.62,0.25c0.05,0.71-0.15,1.32-0.7,1.8
			C57.12,25.59,56.86,25.75,56.9,26.09"/>
		<path class="st4" d="M56.9,26.09c-0.39,0.08-0.65-0.1-0.87-0.4c0.03-0.2-0.06-0.41,0.31-0.46c0.23-0.03,0.41-0.41,0.42-0.73
			c0-0.09,0-0.19-0.02-0.28c-0.14-0.65-0.28-0.65,0.65-0.86c0.2,0.1,0.38,0.25,0.62,0.25c0.05,0.71-0.15,1.32-0.7,1.8
			C57.12,25.59,56.86,25.75,56.9,26.09z"/>
		<path class="st3" d="M50.6,12.24c0.05,0.09,0.16,0.09,0.24,0.12c0.67,0.24,0.8,0.41,0.61,1.09c-0.13,0.48,0.06,0.82,0.27,1.19
			c0.05,0.09,0.1,0.15,0.22,0.1c0.08-0.03,0.19-0.16,0.26,0.02c0.04,0.11,0.11,0.22,0.02,0.34c-0.02,0.02-0.02,0.05-0.04,0.07
			c-0.46,0.41-0.29,0.77,0.05,1.18c0.17,0.21,0.33,0.23,0.54,0.23c-0.19,0.25-0.4,0.5-0.56,0.77c-0.22,0.35,0.04,0.72,0.03,1.08
			c0,0.17,0.05,0.36,0.04,0.55c-0.67,0.21-1.33,0.58-2.05,0.16c-0.11-0.06-0.23-0.07-0.34,0c-0.22,0.13-0.45,0.07-0.58-0.09
			c-0.2-0.24-0.42-0.26-0.69-0.23c0.07-0.74-0.05-1.51,0.37-2.19c0.04-0.07,0.12-0.19,0.02-0.29c0.3-0.79,0.71-1.53,0.92-2.35
			c0.06-0.24,0.28-0.44,0.45-0.64c0.19-0.24,0.42-0.45,0.18-0.79C50.5,12.45,50.5,12.33,50.6,12.24"/>
		<path class="st4" d="M50.6,12.24c0.05,0.09,0.16,0.09,0.24,0.12c0.67,0.24,0.8,0.41,0.61,1.09c-0.13,0.48,0.06,0.82,0.27,1.19
			c0.05,0.09,0.1,0.15,0.22,0.1c0.08-0.03,0.19-0.16,0.26,0.02c0.04,0.11,0.11,0.22,0.02,0.34c-0.02,0.02-0.02,0.05-0.04,0.07
			c-0.46,0.41-0.29,0.77,0.05,1.18c0.17,0.21,0.33,0.23,0.54,0.23c-0.19,0.25-0.4,0.5-0.56,0.77c-0.22,0.35,0.04,0.72,0.03,1.08
			c0,0.17,0.05,0.36,0.04,0.55c-0.67,0.21-1.33,0.58-2.05,0.16c-0.11-0.06-0.23-0.07-0.34,0c-0.22,0.13-0.45,0.07-0.58-0.09
			c-0.2-0.24-0.42-0.26-0.69-0.23c0.07-0.74-0.05-1.51,0.37-2.19c0.04-0.07,0.12-0.19,0.02-0.29c0.3-0.79,0.71-1.53,0.92-2.35
			c0.06-0.24,0.28-0.44,0.45-0.64c0.19-0.24,0.42-0.45,0.18-0.79C50.5,12.45,50.5,12.33,50.6,12.24z"/>
		<path class="st3" d="M48.61,18.81c0.12-0.06,0.24-0.11,0.36-0.17c0.1-0.05,0.15-0.04,0.2,0.08c0.18,0.38,0.38,0.44,0.73,0.24
			c0.07-0.04,0.13-0.05,0.18,0c0.63,0.51,1.27,0.16,1.92,0.05c0.09-0.02,0.18-0.02,0.28-0.02c0.14,0.64,0.27,1.28,0.41,1.92
			c-0.08,0-0.16,0-0.24-0.01c-0.56-0.12-0.57-0.12-0.56,0.43c0.01,0.4-0.16,0.72-0.34,1.05c-0.12,0.22-0.19,0.44-0.06,0.68
			c0.14,0.26-0.01,0.44-0.17,0.64c-0.17,0.21-0.32,0.12-0.52,0.07c-0.45-0.13-0.88,0.12-1.32,0.17c-0.33,0.04-0.62,0.09-0.66,0.53
			c-0.02,0.19-0.2,0.12-0.32,0.07c-0.52-0.19-1.05-0.37-1.57-0.56c-0.05-0.19-0.08-0.39-0.16-0.57c-0.29-0.72,0.07-1.21,0.57-1.64
			c0.13-0.11,0.28-0.2,0.42-0.29c0.51-0.33,0.87-0.68,0.78-1.4C48.51,19.64,48.61,19.22,48.61,18.81"/>
		<path class="st4" d="M48.61,18.81c0.12-0.06,0.24-0.11,0.36-0.17c0.1-0.05,0.15-0.04,0.2,0.08c0.18,0.38,0.38,0.44,0.73,0.24
			c0.07-0.04,0.13-0.05,0.18,0c0.63,0.51,1.27,0.16,1.92,0.05c0.09-0.02,0.18-0.02,0.28-0.02c0.14,0.64,0.27,1.28,0.41,1.92
			c-0.08,0-0.16,0-0.24-0.01c-0.56-0.12-0.57-0.12-0.56,0.43c0.01,0.4-0.16,0.72-0.34,1.05c-0.12,0.22-0.19,0.44-0.06,0.68
			c0.14,0.26-0.01,0.44-0.17,0.64c-0.17,0.21-0.32,0.12-0.52,0.07c-0.45-0.13-0.88,0.12-1.32,0.17c-0.33,0.04-0.62,0.09-0.66,0.53
			c-0.02,0.19-0.2,0.12-0.32,0.07c-0.52-0.19-1.05-0.37-1.57-0.56c-0.05-0.19-0.08-0.39-0.16-0.57c-0.29-0.72,0.07-1.21,0.57-1.64
			c0.13-0.11,0.28-0.2,0.42-0.29c0.51-0.33,0.87-0.68,0.78-1.4C48.51,19.64,48.61,19.22,48.61,18.81z"/>
		<path class="st5" d="M96.69,19.06H32.1v40.73h65.43V19.06c0-0.01,0-0.01-0.01-0.01C97.49,19.05,97.35,19.05,96.69,19.06"/>
		<path class="st6" d="M96.69,19.06H32.1v40.73h65.43V19.06c0-0.01,0-0.01-0.01-0.01C97.49,19.05,97.35,19.05,96.69,19.06"/>
		<rect x="34.59" y="21.24" class="st5" width="60.55" height="36.35"/>
		<rect x="34.59" y="21.24" class="st6" width="60.55" height="36.35"/>
		<path class="st0" d="M99.01,21.38H34.42v40.73h65.43V21.39c0-0.01,0-0.01-0.01-0.01C99.81,21.38,99.67,21.38,99.01,21.38"/>
		<path class="st1" d="M99.01,21.38H34.42v40.73h65.43V21.39c0-0.01,0-0.01-0.01-0.01C99.81,21.38,99.67,21.38,99.01,21.38"/>
		<rect x="36.91" y="23.57" class="st7" width="60.55" height="36.35"/>
		<rect x="36.91" y="23.57" class="st1" width="60.55" height="36.35"/>
		<path class="st8" d="M55,30.84l-0.8,3.77c3.3,0.7,5.77,3.62,5.77,7.13c0,3.55-2.54,6.51-5.9,7.16l0.73,3.78
			c4.49-0.87,7.82-4.15,8.77-8.62C64.86,38.04,61.02,32.12,55,30.84"/>
		<path class="st9" d="M54.2,34.61l0.8-3.77c-0.84-0.18-1.45-0.24-2.32-0.24v3.85C53.21,34.45,53.71,34.5,54.2,34.61"/>
		<path class="st10" d="M45.4,41.74c0-4.03,3.26-7.29,7.29-7.29V30.6c-0.12,0-0.27,0-0.39,0.01c-6.15,0.21-10.96,5.37-10.74,11.52
			l3.85-0.13C45.4,41.91,45.4,41.82,45.4,41.74"/>
		<path class="st11" d="M45.4,41.99l-3.85,0.13c0.18,5.28,4,9.67,9.2,10.58l0.67-3.79C48.08,48.33,45.52,45.47,45.4,41.99"/>
		<path class="st12" d="M52.69,49.03c-0.43,0-0.85-0.04-1.27-0.11l-0.67,3.79c1.43,0.25,2.63,0.24,4.06-0.04l-0.74-3.78
			C53.63,48.98,53.16,49.03,52.69,49.03"/>
		<rect x="71.05" y="30.74" class="st13" width="21.77" height="2.54"/>
		<rect x="71.05" y="34.13" class="st13" width="8.01" height="2.33"/>
		<rect x="71.05" y="37.44" class="st14" width="17.49" height="2.19"/>
		<rect x="71.05" y="40.54" class="st15" width="12.93" height="2.4"/>
		<rect x="71.05" y="43.65" class="st16" width="10.47" height="2.47"/>
		<rect x="71.05" y="46.75" class="st17" width="8.01" height="2.47"/>
		<rect x="71.05" y="50.06" class="st17" width="5.65" height="2.61"/>
	</g>
</g>
<g id="Camada_2">
</g>
</svg>
