<?xml version="1.0" encoding="utf-8"?>
<!-- Generator: Adobe Illustrator 24.2.1, SVG Export Plug-In . SVG Version: 6.00 Build 0)  -->
<svg version="1.1" xmlns="http://www.w3.org/2000/svg" xmlns:xlink="http://www.w3.org/1999/xlink" x="0px" y="0px"
	 viewBox="0 0 113.39 62.36" style="enable-background:new 0 0 113.39 62.36;" xml:space="preserve">
<style type="text/css">
	.st0{fill:#1C2738;}
	.st1{fill:#B4D7E4;}
	.st2{fill:#1F60A0;}
	.st3{fill:#1D3343;}
	.st4{fill:#616162;}
	.st5{fill:#5798AE;}
	.st6{fill:#131521;}
	.st7{fill:#2E5065;}
	.st8{fill:#D8D8DA;}
	.st9{fill:#151926;}
	.st10{clip-path:url(#SVGID_2_);}
	.st11{fill:#57625F;}
	.st12{opacity:0.19;clip-path:url(#SVGID_2_);}
	.st13{fill:#3F6D89;}
	.st14{fill:#FFFFFF;}
	.st15{opacity:0;clip-path:url(#SVGID_2_);}
	.st16{fill:#65AFE2;}
	.st17{opacity:0.54;clip-path:url(#SVGID_2_);}
</style>
<g id="versao_1">
	<g>
		<g>
			<path class="st0" d="M99.95,0.1h-87.5v55.17h88.63V0.11c0-0.01,0-0.01-0.01-0.01C101.03,0.09,100.84,0.09,99.95,0.1"/>
		</g>
		<g>
			<rect x="15.82" y="4.01" class="st1" width="82.02" height="49.24"/>
		</g>
		<g>
			<rect x="15.82" y="4.01" class="st2" width="82.02" height="3.91"/>
		</g>
		<g>
			<path class="st3" d="M87.49,5.96c0,0.63-0.51,1.14-1.14,1.14s-1.14-0.51-1.14-1.14c0-0.63,0.51-1.14,1.14-1.14
				S87.49,5.34,87.49,5.96"/>
		</g>
		<g>
			<path class="st3" d="M91.85,5.96c0,0.63-0.51,1.14-1.14,1.14c-0.63,0-1.14-0.51-1.14-1.14c0-0.63,0.51-1.14,1.14-1.14
				C91.34,4.83,91.85,5.34,91.85,5.96"/>
		</g>
		<g>
			<path class="st3" d="M96.06,5.96c0,0.63-0.51,1.14-1.14,1.14c-0.63,0-1.14-0.51-1.14-1.14c0-0.63,0.51-1.14,1.14-1.14
				C95.55,4.83,96.06,5.34,96.06,5.96"/>
		</g>
		<g>
			<rect x="0.01" y="55.19" class="st4" width="113.38" height="4.33"/>
		</g>
		<g>
			<g>
				<rect x="30.5" y="48.08" class="st5" width="1.38" height="0.27"/>
			</g>
		</g>
		<g>
			<g>
				<rect x="32.42" y="47.97" class="st5" width="1.38" height="0.39"/>
			</g>
		</g>
		<g>
			<g>
				<rect x="34.34" y="47.96" class="st5" width="1.38" height="0.4"/>
			</g>
		</g>
		<g>
			<g>
				<rect x="36.26" y="47.31" class="st5" width="1.38" height="1.04"/>
			</g>
		</g>
		<g>
			<g>
				<rect x="38.18" y="45.55" class="st5" width="1.38" height="2.8"/>
			</g>
		</g>
		<g>
			<g>
				<rect x="40.1" y="43.02" class="st5" width="1.38" height="5.34"/>
			</g>
		</g>
		<g>
			<g>
				<rect x="42.02" y="43.65" class="st5" width="1.38" height="4.71"/>
			</g>
		</g>
		<g>
			<g>
				<rect x="43.94" y="41.75" class="st5" width="1.38" height="6.6"/>
			</g>
		</g>
		<g>
			<g>
				<rect x="45.86" y="36.83" class="st5" width="1.38" height="11.53"/>
			</g>
		</g>
		<g>
			<g>
				<rect x="47.78" y="42.56" class="st5" width="1.38" height="5.79"/>
			</g>
		</g>
		<g>
			<g>
				<rect x="49.7" y="41.12" class="st5" width="1.38" height="7.24"/>
			</g>
		</g>
		<g>
			<g>
				<rect x="51.62" y="36.68" class="st5" width="1.38" height="11.67"/>
			</g>
		</g>
		<g>
			<g>
				<rect x="53.54" y="32.81" class="st5" width="1.38" height="15.55"/>
			</g>
		</g>
		<g>
			<g>
				<rect x="55.46" y="40.39" class="st5" width="1.38" height="7.96"/>
			</g>
		</g>
		<g>
			<g>
				<rect x="57.38" y="39.32" class="st5" width="1.38" height="9.04"/>
			</g>
		</g>
		<g>
			<g>
				<rect x="59.3" y="37.01" class="st5" width="1.38" height="11.34"/>
			</g>
		</g>
		<g>
			<g>
				<rect x="61.22" y="30.99" class="st5" width="1.38" height="17.36"/>
			</g>
		</g>
		<g>
			<g>
				<rect x="63.14" y="33.6" class="st5" width="1.38" height="14.76"/>
			</g>
		</g>
		<g>
			<g>
				<polyline class="st5" points="66.44,40.09 66.44,48.36 65.06,48.36 65.06,40.09 				"/>
			</g>
		</g>
		<g>
			<g>
				<rect x="66.98" y="41.08" class="st5" width="1.38" height="7.28"/>
			</g>
		</g>
		<g>
			<g>
				<rect x="68.9" y="28.11" class="st5" width="1.38" height="20.24"/>
			</g>
		</g>
		<g>
			<g>
				<rect x="70.81" y="23.6" class="st5" width="1.38" height="24.76"/>
			</g>
		</g>
		<g>
			<g>
				<rect x="72.73" y="31.97" class="st5" width="1.38" height="16.38"/>
			</g>
		</g>
		<g>
			<g>
				<g>
					<line class="st6" x1="31.19" y1="48.01" x2="29.27" y2="48.19"/>
				</g>
				<g>
					
						<rect x="29.27" y="47.97" transform="matrix(0.9955 -0.0943 0.0943 0.9955 -4.4 3.0646)" class="st7" width="1.93" height="0.25"/>
					<path class="st7" d="M29.21,48.41l-0.04-0.42l2.09-0.2l0.04,0.42L29.21,48.41z M29.35,48.14l0.01,0.08l1.75-0.17l-0.01-0.08
						L29.35,48.14z"/>
				</g>
			</g>
			<g>
				<g>
					<line class="st6" x1="33.11" y1="47.22" x2="31.19" y2="48.01"/>
				</g>
				<g>
					
						<rect x="31.12" y="47.49" transform="matrix(0.9255 -0.3788 0.3788 0.9255 -15.6398 15.7269)" class="st7" width="2.07" height="0.25"/>
					<path class="st7" d="M31.19,48.24l-0.16-0.39l2.08-0.85l0.16,0.39L31.19,48.24z M31.26,47.94l0.03,0.08l1.76-0.72l-0.03-0.08
						L31.26,47.94z"/>
				</g>
			</g>
			<g>
				<g>
					<line class="st6" x1="35.03" y1="47.63" x2="33.11" y2="47.22"/>
				</g>
				<g>
					
						<rect x="33.95" y="46.44" transform="matrix(0.2068 -0.9784 0.9784 0.2068 -19.3718 70.9545)" class="st7" width="0.25" height="1.96"/>
					<path class="st7" d="M35.07,47.85l-2.09-0.44L33.07,47l2.09,0.44L35.07,47.85z M33.19,47.28l1.75,0.37l0.02-0.08L33.2,47.2
						L33.19,47.28z"/>
				</g>
			</g>
			<g>
				<g>
					<line class="st6" x1="36.95" y1="46.91" x2="35.03" y2="47.63"/>
				</g>
				<g>
					
						<rect x="34.97" y="47.14" transform="matrix(0.9364 -0.351 0.351 0.9364 -14.3012 15.6414)" class="st7" width="2.05" height="0.25"/>
					<path class="st7" d="M35.03,47.85l-0.15-0.4l2.08-0.78l0.15,0.4L35.03,47.85z M35.1,47.56l0.03,0.08l1.76-0.66l-0.03-0.08
						L35.1,47.56z"/>
				</g>
			</g>
			<g>
				<g>
					<line class="st6" x1="38.87" y1="43.64" x2="36.95" y2="46.91"/>
				</g>
				<g>
					
						<rect x="36.02" y="45.15" transform="matrix(0.5067 -0.8621 0.8621 0.5067 -20.3285 55.0157)" class="st7" width="3.79" height="0.25"/>
					<path class="st7" d="M37.09,47.09l-0.36-0.21l2.01-3.42l0.36,0.21L37.09,47.09z M36.96,46.81l0.07,0.04l1.83-3.12l-0.07-0.04
						L36.96,46.81z"/>
				</g>
			</g>
			<g>
				<g>
					<line class="st6" x1="40.79" y1="38.46" x2="38.87" y2="43.64"/>
				</g>
				<g>
					
						<rect x="37.07" y="40.93" transform="matrix(0.3477 -0.9376 0.9376 0.3477 -12.5076 64.1238)" class="st7" width="5.52" height="0.25"/>
					<path class="st7" d="M39.04,43.79l-0.4-0.15l1.98-5.33l0.4,0.15L39.04,43.79z M38.86,43.54l0.08,0.03l1.86-5.01l-0.08-0.03
						L38.86,43.54z"/>
				</g>
			</g>
			<g>
				<g>
					<line class="st6" x1="42.71" y1="37.7" x2="40.79" y2="38.46"/>
				</g>
				<g>
					
						<rect x="40.72" y="37.96" transform="matrix(0.9296 -0.3686 0.3686 0.9296 -11.0982 18.0716)" class="st7" width="2.07" height="0.25"/>
					<path class="st7" d="M40.79,38.69l-0.16-0.39l2.08-0.82l0.16,0.39L40.79,38.69z M40.86,38.4l0.03,0.08l1.76-0.7l-0.03-0.08
						L40.86,38.4z"/>
				</g>
			</g>
			<g>
				<g>
					<line class="st6" x1="44.63" y1="35.96" x2="42.71" y2="37.7"/>
				</g>
				<g>
					
						<rect x="42.38" y="36.71" transform="matrix(0.7412 -0.6713 0.6713 0.7412 -13.424 38.852)" class="st7" width="2.59" height="0.25"/>
					<path class="st7" d="M42.79,37.92l-0.28-0.31l2.05-1.85l0.28,0.31L42.79,37.92z M42.75,37.62l0.05,0.06l1.79-1.62l-0.05-0.06
						L42.75,37.62z"/>
				</g>
			</g>
			<g>
				<g>
					<line class="st6" x1="46.55" y1="33.55" x2="44.63" y2="35.96"/>
				</g>
				<g>
					
						<rect x="44.05" y="34.63" transform="matrix(0.622 -0.7831 0.7831 0.622 -9.981 48.8393)" class="st7" width="3.09" height="0.25"/>
				</g>
			</g>
			<g>
				<g>
					<line class="st6" x1="48.47" y1="37.65" x2="46.55" y2="33.55"/>
				</g>
				<g>
					
						<rect x="47.38" y="33.33" transform="matrix(0.9055 -0.4243 0.4243 0.9055 -10.6149 23.521)" class="st7" width="0.25" height="4.52"/>
				</g>
			</g>
			<g>
				<g>
					<line class="st6" x1="50.39" y1="33.26" x2="48.47" y2="37.65"/>
				</g>
				<g>
					
						<rect x="47.04" y="35.33" transform="matrix(0.4013 -0.9159 0.9159 0.4013 -2.8795 66.4982)" class="st7" width="4.79" height="0.25"/>
				</g>
			</g>
			<g>
				<g>
					<line class="st6" x1="52.31" y1="33.98" x2="50.39" y2="33.26"/>
				</g>
				<g>
					
						<rect x="51.22" y="32.59" transform="matrix(0.3512 -0.9363 0.9363 0.3512 1.838 69.8896)" class="st7" width="0.25" height="2.05"/>
				</g>
			</g>
			<g>
				<g>
					<line class="st6" x1="54.23" y1="29.78" x2="52.31" y2="33.98"/>
				</g>
				<g>
					
						<rect x="50.96" y="31.75" transform="matrix(0.4161 -0.9093 0.9093 0.4161 2.115 67.0544)" class="st7" width="4.61" height="0.25"/>
				</g>
			</g>
			<g>
				<g>
					<line class="st6" x1="56.15" y1="37.28" x2="54.23" y2="29.78"/>
				</g>
				<g>
					
						<rect x="55.06" y="29.66" transform="matrix(0.9688 -0.248 0.248 0.9688 -6.5918 14.7345)" class="st7" width="0.25" height="7.74"/>
				</g>
			</g>
			<g>
				<g>
					<line class="st6" x1="58.07" y1="39.33" x2="56.15" y2="37.28"/>
				</g>
				<g>
					
						<rect x="56.98" y="36.9" transform="matrix(0.729 -0.6845 0.6845 0.729 -10.7426 49.4725)" class="st7" width="0.25" height="2.8"/>
				</g>
			</g>
			<g>
				<g>
					<line class="st6" x1="59.99" y1="36.52" x2="58.07" y2="39.33"/>
				</g>
				<g>
					
						<rect x="57.33" y="37.8" transform="matrix(0.5646 -0.8254 0.8254 0.5646 -5.5984 65.2327)" class="st7" width="3.4" height="0.25"/>
				</g>
			</g>
			<g>
				<g>
					<line class="st6" x1="61.91" y1="32.83" x2="59.99" y2="36.52"/>
				</g>
				<g>
					
						<rect x="58.87" y="34.55" transform="matrix(0.461 -0.8874 0.8874 0.461 2.0799 72.7722)" class="st7" width="4.16" height="0.25"/>
				</g>
			</g>
			<g>
				<g>
					<line class="st6" x1="63.83" y1="33.47" x2="61.91" y2="32.83"/>
				</g>
				<g>
					
						<rect x="62.74" y="32.14" transform="matrix(0.3188 -0.9478 0.9478 0.3188 11.4053 82.1708)" class="st7" width="0.25" height="2.03"/>
				</g>
			</g>
			<g>
				<g>
					<line class="st6" x1="65.75" y1="37.33" x2="63.83" y2="33.47"/>
				</g>
				<g>
					
						<rect x="64.66" y="33.25" transform="matrix(0.8952 -0.4456 0.4456 0.8952 -8.9877 32.5785)" class="st7" width="0.25" height="4.31"/>
				</g>
			</g>
			<g>
				<g>
					<line class="st6" x1="67.67" y1="41.59" x2="65.75" y2="37.33"/>
				</g>
				<g>
					
						<rect x="66.58" y="37.12" transform="matrix(0.9118 -0.4106 0.4106 0.9118 -10.321 30.8733)" class="st7" width="0.25" height="4.67"/>
				</g>
			</g>
			<g>
				<g>
					<line class="st6" x1="69.59" y1="20.37" x2="67.67" y2="41.59"/>
				</g>
				<g>
					
						<rect x="57.97" y="30.86" transform="matrix(0.0898 -0.996 0.996 0.0898 31.6044 96.5481)" class="st7" width="21.31" height="0.25"/>
				</g>
			</g>
			<g>
				<g>
					<line class="st6" x1="71.51" y1="23.88" x2="69.59" y2="20.37"/>
				</g>
				<g>
					
						<rect x="70.42" y="20.13" transform="matrix(0.8773 -0.4799 0.4799 0.8773 -1.9639 36.5707)" class="st7" width="0.25" height="4"/>
				</g>
			</g>
			<g>
				<g>
					<line class="st6" x1="73.43" y1="24.6" x2="71.51" y2="23.88"/>
				</g>
				<g>
					
						<rect x="72.34" y="23.22" transform="matrix(0.3512 -0.9363 0.9363 0.3512 24.3182 83.5768)" class="st7" width="0.25" height="2.05"/>
				</g>
			</g>
		</g>
		<g>
			<g>
				<circle class="st8" cx="60.68" cy="29.6" r="16.51"/>
			</g>
		</g>
		<path class="st0" d="M62.1,58.09v4.26L1.9,62.36c-1.05,0-1.9-0.72-1.9-1.62l0-2.65H62.1z"/>
		<path class="st0" d="M51.28,58.09v4.26l60.2,0.01c1.05,0,1.9-0.72,1.9-1.62v-2.65H51.28z"/>
		<g>
			<g>
				<path class="st9" d="M60.95,47.44c-9.76,0-17.71-7.94-17.71-17.71c0-9.76,7.94-17.71,17.71-17.71s17.71,7.94,17.71,17.71
					C78.66,39.49,70.71,47.44,60.95,47.44z M60.95,13.42c-8.99,0-16.31,7.32-16.31,16.31c0,8.99,7.32,16.31,16.31,16.31
					s16.31-7.32,16.31-16.31C77.26,20.74,69.94,13.42,60.95,13.42z"/>
			</g>
		</g>
		<g>
			<defs>
				<circle id="SVGID_1_" cx="60.95" cy="29.56" r="15.18"/>
			</defs>
			<clipPath id="SVGID_2_">
				<use xlink:href="#SVGID_1_"  style="overflow:visible;"/>
			</clipPath>
			<g id="barras" class="st10">
				<g>
					<polyline class="st5" points="68.36,51.66 68.36,29.56 71.74,29.56 71.74,51.66 					"/>
				</g>
				<g>
					<polyline class="st5" points="49.56,61.85 49.56,39.75 52.94,39.75 52.94,61.85 					"/>
				</g>
				<g>
					<polyline class="st5" points="54.26,61.85 54.26,34.11 57.64,34.11 57.64,61.85 					"/>
				</g>
				<g>
					<polyline class="st5" points="58.95,61.85 58.95,19.38 62.33,19.38 62.33,61.85 					"/>
				</g>
				<g>
					<polyline class="st5" points="63.65,61.85 63.65,25.76 67.03,25.76 67.03,61.85 					"/>
				</g>
			</g>
			<g id="linhas" class="st10">
				<g>
					<g>
						<line class="st6" x1="51.25" y1="39.76" x2="46.56" y2="34.76"/>
						
							<rect x="48.79" y="33.83" transform="matrix(0.729 -0.6845 0.6845 0.729 -12.2534 43.5748)" class="st7" width="0.23" height="6.86"/>
					</g>
					<g>
						
							<rect x="48.6" y="33.83" transform="matrix(0.729 -0.6845 0.6845 0.729 -12.2535 43.5753)" class="st7" width="0.62" height="6.86"/>
						<path class="st7" d="M51.02,40.13l-0.08-0.08l-4.77-5.08l0.61-0.58l0.08,0.08l4.77,5.08L51.02,40.13z M46.49,34.98l4.54,4.83
							l0.28-0.27l-4.54-4.83L46.49,34.98z"/>
					</g>
				</g>
				<g>
					<g>
						<line class="st6" x1="55.95" y1="32.9" x2="51.25" y2="39.76"/>
						
							<rect x="49.44" y="36.22" transform="matrix(0.5641 -0.8257 0.8257 0.5641 -6.6351 60.0936)" class="st7" width="8.32" height="0.23"/>
					</g>
					<g>
						
							<rect x="49.44" y="36.02" transform="matrix(0.5646 -0.8254 0.8254 0.5646 -6.6483 60.0605)" class="st7" width="8.32" height="0.62"/>
						<path class="st7" d="M51.54,40.09l-0.7-0.48l4.82-7.05l0.7,0.48L51.54,40.09z M51.16,39.56l0.32,0.22l4.57-6.68l-0.32-0.22
							L51.16,39.56z"/>
					</g>
				</g>
				<g>
					<g>
						<line class="st6" x1="60.64" y1="23.87" x2="55.95" y2="32.9"/>
						
							<rect x="53.21" y="28.27" transform="matrix(0.4612 -0.8873 0.8873 0.4612 6.2229 67.0184)" class="st7" width="10.18" height="0.23"/>
					</g>
					<g>
						
							<rect x="53.21" y="28.08" transform="matrix(0.461 -0.8874 0.8874 0.461 6.2315 67.0301)" class="st7" width="10.18" height="0.62"/>
						<path class="st7" d="M56.27,33.19l-0.75-0.39l0.05-0.1l4.75-9.13l0.75,0.39l-0.05,0.1L56.27,33.19z M55.83,32.71l0.34,0.18
							l4.59-8.83l-0.34-0.18L55.83,32.71z"/>
					</g>
				</g>
				<g>
					<g>
						<line class="st6" x1="65.34" y1="25.45" x2="60.64" y2="23.87"/>
						
							<rect x="62.88" y="22.18" transform="matrix(0.3188 -0.9478 0.9478 0.3188 19.5377 76.5042)" class="st7" width="0.23" height="4.95"/>
					</g>
					<g>
						
							<rect x="62.68" y="22.18" transform="matrix(0.3188 -0.9478 0.9478 0.3188 19.5382 76.5048)" class="st7" width="0.62" height="4.95"/>
						<path class="st7" d="M65.31,25.89l-4.91-1.65l0.27-0.8l4.91,1.65L65.31,25.89z M60.69,24.09l4.48,1.51l0.12-0.37l-4.48-1.51
							L60.69,24.09z"/>
					</g>
				</g>
				<g>
					<g>
						<line class="st6" x1="70.04" y1="34.88" x2="65.34" y2="25.45"/>
						
							<rect x="67.57" y="24.9" transform="matrix(0.8952 -0.4456 0.4456 0.8952 -6.3507 33.3235)" class="st7" width="0.23" height="10.54"/>
					</g>
					<g>
						
							<rect x="67.38" y="24.9" transform="matrix(0.8952 -0.4456 0.4456 0.8952 -6.3508 33.3226)" class="st7" width="0.62" height="10.54"/>
						<path class="st7" d="M69.71,35.17l-4.8-9.64l0.75-0.38l4.8,9.64L69.71,35.17z M65.22,25.64l4.59,9.23l0.35-0.17l-4.59-9.23
							L65.22,25.64z"/>
					</g>
				</g>
				<g>
					<g>
						<line class="st6" x1="74.73" y1="45.31" x2="70.04" y2="34.88"/>
						
							<rect x="72.27" y="34.38" transform="matrix(0.9118 -0.4106 0.4106 0.9118 -10.0809 33.2599)" class="st7" width="0.23" height="11.43"/>
					</g>
					<g>
						
							<rect x="72.08" y="34.38" transform="matrix(0.9118 -0.4106 0.4106 0.9118 -10.081 33.2604)" class="st7" width="0.62" height="11.43"/>
						<path class="st7" d="M74.39,45.59l-4.79-10.63l0.77-0.35l4.79,10.63L74.39,45.59z M69.91,35.07l4.6,10.22l0.35-0.16
							l-4.6-10.22L69.91,35.07z"/>
					</g>
				</g>
			</g>
			<g class="st10">
				<g>
					<path class="st11" d="M60.95,46.12c-9.13,0-16.56-7.43-16.56-16.56s7.43-16.56,16.56-16.56s16.56,7.43,16.56,16.56
						S70.08,46.12,60.95,46.12z M60.95,13.09c-9.08,0-16.46,7.39-16.46,16.46s7.39,16.46,16.46,16.46s16.46-7.39,16.46-16.46
						S70.03,13.09,60.95,13.09z"/>
				</g>
			</g>
			<g class="st12">
				<g>
					<circle class="st5" cx="60.95" cy="29.56" r="15.18"/>
				</g>
			</g>
			<g class="st12">
				<g>
					<circle class="st13" cx="60.95" cy="29.56" r="14"/>
				</g>
			</g>
			<g class="st10">
				<g>
					<path class="st14" d="M60.95,45.01c-8.42,0-15.28-6.85-15.28-15.28c0-8.42,6.86-15.01,15.28-15.28
						c9.21-0.29,15.55,6.75,15.28,15.28C75.96,38.15,69.37,45.01,60.95,45.01z M60.95,14.65c-8.31,0-15.08,6.76-15.08,15.08
						c0,8.31,6.76,15.08,15.08,15.08s15.08-6.76,15.08-15.08C76.03,21.42,69.26,14.65,60.95,14.65z"/>
				</g>
			</g>
			<g class="st15">
				<g>
					<circle class="st16" cx="61.59" cy="30.3" r="12.96"/>
				</g>
			</g>
			<g class="st17">
				<path class="st14" d="M48.74,29.78c0,0-0.27-6.03,3.03-8.22l0.2,0.71c0,0-2.36,1.77-2.59,7.28L48.74,29.78z"/>
			</g>
		</g>
		<g>
			<polygon class="st9" points="85.68,59.34 83.98,60.78 68.36,45.56 73.45,41.68 			"/>
		</g>
	</g>
</g>
<g id="Camada_2">
</g>
</svg>
