<?xml version="1.0" encoding="utf-8"?>
<!-- Generator: Adobe Illustrator 24.2.1, SVG Export Plug-In . SVG Version: 6.00 Build 0)  -->
<svg version="1.1" xmlns="http://www.w3.org/2000/svg" xmlns:xlink="http://www.w3.org/1999/xlink" x="0px" y="0px"
	 viewBox="0 0 113.39 62.36" style="enable-background:new 0 0 113.39 62.36;" xml:space="preserve">
<style type="text/css">
	.st0{display:none;}
	.st1{display:inline;fill:#F9F9F9;}
	.st2{fill:#BFBCC3;}
	.st3{fill:#9BE3F4;}
	.st4{fill:#D8E5E5;}
	.st5{fill:#000E25;}
	.st6{fill:#001B23;}
	.st7{fill:#91D6E2;}
	.st8{fill:#AFADB2;}
	.st9{fill:#0089D4;}
	.st10{fill:#AFBBBC;}
	.st11{fill:none;stroke:#0074AA;stroke-width:0.25;stroke-miterlimit:10;}
	.st12{fill:#0074AA;}
	.st13{fill:#AFBBBC;stroke:#0074AA;stroke-width:0.25;stroke-miterlimit:10;}
	.st14{fill:none;stroke:#027BA5;stroke-width:0.8934;stroke-miterlimit:10;}
	.st15{fill:#027BA5;}
	.st16{fill:#002B38;}
	.st17{fill:#7FA2BA;}
	.st18{fill:#001635;}
	.st19{fill:#8BB3D4;}
</style>
<g id="fundo" class="st0">
	<rect x="-0.45" y="-25.51" class="st1" width="113.39" height="113.39"/>
</g>
<g id="Camada_5">
</g>
<g id="pessoa_3">
</g>
<g id="pessoa_1">
</g>
<g id="pessoa_2">
	<g>
		<g>
			<path class="st2" d="M108.51,62.36H67.73l1.76-9.45c1.51-8.1,9.13-14.02,18.05-14.02h1.22c8.9,0,16.5,5.91,17.99,14L108.51,62.36
				z"/>
			<path class="st3" d="M88.21,1.92c6.31,0,11.42,5.09,11.42,11.37c0,0.46-0.03,0.91-0.08,1.35c1.08,0.15,2.36,0.99,1.38,4.35
				c0,0-1.18,2.2-2.85,2.85c-0.71,7.26-6.62,11.55-9.88,11.55c-3.24,0-9.11-4.26-9.86-11.47c-1.65-0.7-2.77-3.01-2.77-3.01
				c-0.94-3.25,0.23-4.14,1.28-4.33c-0.04-0.42-0.07-0.86-0.07-1.29C76.79,7.01,81.91,1.92,88.21,1.92"/>
			<path class="st5" d="M92.96,7.25c0,0-2.15,7.18-10.63,8.57c0,0-3.16,0.25-3.54,2.27l-0.76-2.85c0,0-0.58-1.04-1.17-0.66
				c0,0-1.45-8.33,3.77-12.42c0.21-0.16,0.53-0.39,0.76-0.52c1.46-0.82,7.65-3.78,12.96,1.07c0,0,6.32-1.08,5.82,6.33l-0.62,5.6
				c0,0-1.28-2.6-2.04,2.94c0,0-1.77-3.3-1.01-5.45S92.96,7.25,92.96,7.25z"/>
			<polygon class="st6" points="90.94,57.5 88.25,60.26 85.57,57.5 87.41,47.9 85.83,43.69 90.72,43.56 89.1,47.9 			"/>
			<path class="st3" d="M88.98,44.19h-1.5c-1.59,0-2.87-1.29-2.87-2.87V30.46h7.16V41.4C91.77,42.94,90.52,44.19,88.98,44.19z"/>
			<polygon class="st7" points="91.63,32.28 84.61,36.58 84.61,32.17 			"/>
			<polyline class="st8" points="80.95,41.44 83.77,39.23 88.22,44.19 92.57,39.28 95.57,41.1 88.22,45.15 			"/>
		</g>
		<path class="st9" d="M49.83,62.37H4.88l1.94-8.35c1.67-7.16,10.07-12.39,19.89-12.39h1.34c9.81,0,18.19,5.22,19.84,12.37
			L49.83,62.37z"/>
		<path class="st2" d="M21.05,42.37c0,0,6.11,13.43,12.67,0.01C33.71,42.38,27.42,40.46,21.05,42.37z"/>
		<path class="st2" d="M28.38,46.18h-2.17c-1.55,0-2.8-1.26-2.8-2.8V31.61h7.9v11.65C31.3,44.87,29.99,46.18,28.38,46.18z"/>
		<polygon class="st8" points="31.15,33.62 23.41,38.37 23.41,33.49 		"/>
		<path class="st2" d="M41.41,18.91c0,0-1.3,2.44-3.14,3.16c-0.78,8.04-7.3,12.79-10.89,12.79c-3.57,0-10.05-4.71-10.87-12.7
			c-1.82-0.77-3.05-3.33-3.05-3.33c-1.04-3.6,0.25-4.58,1.41-4.8c-0.05-0.47-0.08-0.95-0.08-1.43C14.79,5.64,20.43,0,27.38,0
			c6.95,0,12.59,5.64,12.59,12.59c0,0.51-0.03,1.01-0.09,1.5C41.07,14.26,42.48,15.18,41.41,18.91z"/>
		<g id="oculos">
			<circle class="st10" cx="21.94" cy="18.78" r="3.71"/>
			<circle class="st11" cx="21.94" cy="18.78" r="3.71"/>
			<path class="st4" d="M18.98,19.2c0,0,0.18-2.07,2.34-3.26"/>
			<rect x="25.65" y="18.55" class="st12" width="3.57" height="0.37"/>
			<path class="st13" d="M36.64,18.64c0,2.05-1.66,3.71-3.71,3.71s-3.71-1.66-3.71-3.71s1.66-3.71,3.71-3.71
				S36.64,16.59,36.64,18.64"/>
			<path class="st11" d="M36.64,18.64c0,2.05-1.66,3.71-3.71,3.71s-3.71-1.66-3.71-3.71s1.66-3.71,3.71-3.71
				S36.64,16.59,36.64,18.64"/>
			<path class="st4" d="M29.98,19.05c0,0,0.18-2.07,2.34-3.26"/>
		</g>
		<path class="st8" d="M39.88,14.09c-0.81-0.54-0.37-5.53-3.29-6.72c-0.77-0.31-2.01-0.31-2.69,0.02c-0.01,0-0.02,0.01-0.02,0.01
			c-0.4,0.21-0.74,0.48-0.98,0.7c-0.38,0.35-0.79,0.69-1.21,0.98c-0.19,0.13-0.33,0.23-0.33,0.23c-1.26,0.81-2.26,1.18-3.88,1.18
			c-0.4,0-0.79-0.03-1.18-0.08c-1.49-0.22-2.8-1.05-3.88-2.1c-0.4-0.39-0.87-0.71-1.4-0.95c-0.66-0.31-1.63-0.39-2.38-0.14
			c-3.19,1.08-2.92,6.16-3.76,6.79c-0.5-6.72,2.86-9.73,4.42-11.04C21.48,1.12,24.31,0,27.41,0c3.14,0,6,1.15,8.21,3.05
			C37.1,4.32,40.54,7.99,39.88,14.09z"/>
		<line class="st14" x1="27.47" y1="48.33" x2="27.47" y2="62.37"/>
		<circle class="st15" cx="29.41" cy="51.2" r="0.9"/>
		<circle class="st15" cx="29.41" cy="55.34" r="0.9"/>
		<circle class="st15" cx="29.41" cy="59.24" r="0.9"/>
		<path class="st16" d="M71.2,23.98c0,8.34-5.67,15.1-12.67,15.1s-16.02-6.76-16.02-15.1s9.03-15.1,16.02-15.1
			S71.2,15.64,71.2,23.98z"/>
		<path class="st16" d="M53.69,10.02c-0.28,0.15-5.47,2.08-8.68,6.65c-3.21,4.57-3.05,10.67,0.07,15.3
			c1.56,2.31,3.45,5.81,3.01,8.68c-0.55,3.57-4.79,5.92-6.19,10.14c-0.8,2.4,0.15,5.03,2.24,6.45l3.43,2.32l15.54-3.09l8.14-0.78
			c0,0,5.6-4.38,1.45-13.42s-2.37-6.37,0.48-14.39c0.6-1.69,2-14.94-7.04-15.97"/>
		<polygon class="st17" points="61.99,41.19 55.25,45.33 55.25,41.08 		"/>
		<g>
			<path class="st5" d="M76.71,62.37l-0.13-0.7c-1.07-5.82-5.42-10.48-11.11-12.46l-4.18,13.16H76.71z"/>
			<path class="st5" d="M51.45,49.4c-5.46,2.08-9.6,6.62-10.66,12.29l-0.13,0.68h15.12L51.45,49.4z"/>
			<path class="st5" d="M51.77,49.28c0.16-0.06,0.31-0.11,0.47-0.16C52.08,49.17,51.93,49.22,51.77,49.28z"/>
			<path class="st18" d="M61.29,62.37l4.18-13.16l0,0c0,0-5.76-2.64-13.23-0.09c-0.16,0.05-0.31,0.1-0.47,0.16
				c-0.11,0.04-0.21,0.07-0.32,0.11l0,0.01l4.34,12.97H61.29z"/>
		</g>
		<path class="st19" d="M59.32,50.25h-1.2c-1.59,0-2.88-1.29-2.88-2.88v-7.94h6.88v8.02C62.12,49,60.87,50.25,59.32,50.25z"/>
		<path class="st19" d="M70.92,28.37c0,0-1.13,2.12-2.73,2.75c-0.68,7-6.36,11.14-9.48,11.14c-3.11,0-8.75-4.11-9.47-11.07
			c-1.58-0.67-2.66-2.9-2.66-2.9c-0.9-3.14,0.22-3.99,1.23-4.18c-0.04-0.41-0.07-0.82-0.07-1.24c0-6.06,4.91-10.97,10.97-10.97
			c6.06,0,10.97,4.91,10.97,10.97c0,0.44-0.02,0.88-0.08,1.3C70.63,24.32,71.86,25.13,70.92,28.37z"/>
		<path class="st16" d="M65.02,12.69c0,0-11.4,12.77-16.7,11.55c0,0-4.59-1.76-0.2,8.84s-4.3-9.1-4.3-9.1l2.85-7.02l8.57-5.91
			L65.02,12.69z"/>
		<path class="st16" d="M64.32,13.19c0,0,3.2,10.5,5.44,11.01c2.24,0.51,1.98-4.94,1.98-5.16C71.74,18.82,64.32,13.19,64.32,13.19z"
			/>
	</g>
</g>
</svg>
